# xmcd
#
# Track frame offsets:
#	150
#	14122
#	34765
#	49250
#	85565
#	96867
#	124225
#	147930
#	171700
#	193447
#
# Disc length: 2867 seconds
#
# Revision: 4
# Processed by: cddbd v1.5.1PL0 Copyright (c) Steve Scherf et al.
# Submitted via: Audio-CD-Archiv 4.00.519
#
DISCID=950b310a
DTITLE=Gypsy - Gypsy
DYEAR=1971
DGENRE=blues
TTITLE0=unbekannt - What Makes A Man A Man
TTITLE1=unbekannt - Keep On Trying
TTITLE2=unbekannt - I Don't Care, Do You Mind?
TTITLE3=unbekannt - Turning Wheel
TTITLE4=unbekannt - Feel About The Country Fine
TTITLE5=unbekannt - Standing Alone, Feel So Bad
TTITLE6=unbekannt - I Want To Be Beside You
TTITLE7=unbekannt - Please Don't Stay
TTITLE8=unbekannt - Let Me Take You Home
TTITLE9=unbekannt - Pony Ride
EXTD=
EXTT0=
EXTT1=
EXTT2=
EXTT3=
EXTT4=
EXTT5=
EXTT6=
EXTT7=
EXTT8=
EXTT9=
PLAYORDER=
